<?xml version="1.0" standalone="no"?>
<!DOCTYPE svg PUBLIC "-//W3C//DTD SVG 20010904//EN"
 "http://www.w3.org/TR/2001/REC-SVG-20010904/DTD/svg10.dtd">
<svg version="1.0" xmlns="http://www.w3.org/2000/svg"
 width="400.000000pt" height="400.000000pt" viewBox="0 0 400.000000 400.000000"
 preserveAspectRatio="xMidYMid meet">
<metadata>
Created by potrace 1.14, written by Peter Selinger 2001-2017
</metadata>
<g transform="translate(0.000000,400.000000) scale(0.100000,-0.100000)"
fill="#000000" stroke="none">
<path d="M1807 3990 c-906 -95 -1625 -767 -1776 -1661 -131 -772 204 -1548
857 -1988 699 -469 1628 -448 2301 54 628 469 922 1240 766 2013 -146 722
-700 1316 -1415 1515 -217 61 -523 89 -733 67z m436 -165 c790 -104 1431 -717
1572 -1505 25 -142 31 -408 11 -556 -105 -798 -715 -1438 -1506 -1579 -142
-25 -408 -31 -556 -11 -798 105 -1438 715 -1579 1506 -25 142 -31 408 -11 556
100 757 646 1368 1389 1553 199 50 466 64 680 36z"/>
<path d="M1564 3266 c-262 -50 -474 -174 -629 -366 -495 -612 -161 -1520 611
-1666 122 -22 336 -15 449 16 112 30 207 73 294 130 74 50 91 58 91 41 0 -17
98 -157 158 -225 154 -176 377 -327 518 -351 56 -9 111 14 120 50 28 114 -94
328 -298 520 -86 81 -195 162 -263 197 -22 11 -42 22 -44 24 -2 2 10 25 27 51
50 77 109 211 134 303 20 75 23 106 22 265 0 166 -3 187 -27 268 -113 370
-383 632 -748 726 -108 28 -313 36 -415 17z m311 -191 c339 -59 612 -326 681
-664 22 -110 15 -284 -16 -390 -80 -280 -301 -502 -580 -581 -108 -31 -281
-38 -391 -16 -410 84 -703 462 -675 873 34 502 490 863 981 778z"/>
<path d="M1340 2636 l-54 -55 25 -34 c13 -19 51 -70 84 -115 l60 -81 60 -1 60
0 95 -95 95 -95 -3 -55 c-5 -72 9 -93 152 -233 142 -139 143 -139 238 -44 95
96 95 97 -44 239 -141 143 -161 156 -233 151 l-55 -3 -95 95 -95 95 0 60 -1
60 -105 78 c-58 43 -110 80 -117 83 -7 2 -37 -20 -67 -50z"/>
<path d="M1845 2666 c-60 -28 -97 -66 -124 -126 -37 -81 -31 -106 49 -185 68
-68 71 -69 123 -71 60 -2 100 -19 136 -58 14 -14 33 -26 43 -26 31 0 113 90
131 145 25 71 20 165 -7 165 -6 0 -43 -32 -81 -71 l-70 -70 -45 6 c-88 13 -87
11 -98 78 l-10 62 74 75 c86 88 85 100 -10 100 -43 0 -76 -7 -111 -24z"/>
<path d="M1442 2077 c-150 -152 -152 -154 -152 -198 0 -51 18 -82 62 -105 62
-32 90 -17 229 122 126 126 127 127 117 161 -5 18 -6 43 -3 54 6 17 -4 32 -41
70 -27 27 -51 49 -54 49 -3 0 -74 -69 -158 -153z m0 -182 c9 -21 8 -28 -7 -45
-31 -34 -75 -20 -75 25 0 48 62 63 82 20z"/>
<path d="M1424 910 c-147 -11 -244 -31 -244 -50 0 -59 803 -75 978 -19 41 13
41 25 -1 38 -89 30 -512 48 -733 31z"/>
</g>
</svg>
